<svg xmlns="http://www.w3.org/2000/svg" viewBox="0 0 120 90"><defs><linearGradient id="gold" x2=".3" y2="1"><stop stop-color="#fff595"/><stop offset=".45" stop-color="#ffd339"/><stop offset="1" stop-color="#d38400"/></linearGradient></defs><path d="M13 25L27 78Q60 92 94 78L109 25L83 46L62 12L42 46Z" fill="#71400c" stroke="#173b59" stroke-width="9" stroke-linejoin="round"/><path d="M13 20L27 70Q60 82 94 70L109 20L83 41L62 7L42 41Z" fill="url(#gold)" stroke="#ffd65c" stroke-width="3" stroke-linejoin="round"/><path d="M27 60Q60 48 96 60L94 72Q60 86 27 72Z" fill="#ffc42c" stroke="#ffe38a" stroke-width="2"/><path d="M30 65Q59 56 92 65" fill="none" stroke="#9e5b02" stroke-width="4"/><g fill="#fff19b"><circle cx="13" cy="20" r="5"/><circle cx="62" cy="7" r="5"/><circle cx="109" cy="20" r="5"/></g></svg>
