<svg xmlns="http://www.w3.org/2000/svg" width="1600" height="1200" viewBox="0 0 1600 1200"><defs><linearGradient id="wood" x2=".8" y2="1"><stop stop-color="#bb9164"/><stop offset=".38" stop-color="#efd2a8"/><stop offset=".65" stop-color="#dfb98a"/><stop offset="1" stop-color="#b98958"/></linearGradient><filter id="grain"><feTurbulence type="fractalNoise" baseFrequency=".008 .42" numOctaves="3" seed="8"/><feColorMatrix type="saturate" values="0"/><feBlend in="SourceGraphic" mode="soft-light"/></filter><radialGradient id="light"><stop stop-color="#fff2d6" stop-opacity=".4"/><stop offset="1" stop-color="#624021" stop-opacity=".14"/></radialGradient><linearGradient id="leaf"><stop stop-color="#182f0d"/><stop offset=".45" stop-color="#527331"/><stop offset=".65" stop-color="#314f1c"/><stop offset="1" stop-color="#172d0c"/></linearGradient><filter id="shadow"><feGaussianBlur stdDeviation="13"/></filter><linearGradient id="steel"><stop stop-color="#f8f2e8"/><stop offset=".3" stop-color="#989994"/><stop offset=".55" stop-color="#e7e3d9"/><stop offset=".85" stop-color="#858780"/><stop offset="1" stop-color="#c7c5bb"/></linearGradient><g id="leaves"><path d="M0 0Q80 60 95 190Q-10 170 0 0" fill="url(#leaf)"/><path d="M0 0Q150 0 235 85Q115 130 0 0" fill="url(#leaf)"/><path d="M0 0Q-110 75-75 190Q30 120 0 0" fill="url(#leaf)"/><path d="M0 0L95 190M0 0L235 85M0 0L-75 190" stroke="#9aaa58" stroke-opacity=".25" stroke-width="2"/></g></defs><rect width="1600" height="1200" fill="url(#wood)"/><rect width="1600" height="1200" fill="#ad845c" opacity=".16" filter="url(#grain)"/><g stroke="#8a623c" opacity=".09" fill="none"><path d="M0 185Q800 165 1600 183M0 396Q700 369 1600 390M0 608Q900 580 1600 601M0 820Q800 792 1600 805M0 1042Q800 1010 1600 1038" stroke-width="3"/><path d="M0 191Q800 171 1600 189M0 402Q700 375 1600 396M0 614Q900 586 1600 607M0 826Q800 798 1600 811M0 1048Q800 1016 1600 1044" stroke="#fff6de" stroke-width="4"/></g><rect width="1600" height="1200" fill="url(#light)"/><g opacity=".25" filter="url(#shadow)" transform="translate(105 45) rotate(-14) scale(1.9)"><use href="#leaves"/></g><g transform="translate(40 -15) rotate(-24) scale(1.6)"><use href="#leaves"/></g><g transform="translate(1540 -20) rotate(38) scale(1.5)"><use href="#leaves"/></g><g transform="translate(1600 1200) rotate(160) scale(1.25)"><use href="#leaves"/></g><g transform="translate(170 860) rotate(-24)"><rect x="9" y="18" width="114" height="265" rx="32" opacity=".3" filter="url(#shadow)"/><path d="M30 0H83Q112 0 112 32V231Q112 254 89 254H25Q2 254 2 231V32Q2 0 30 0ZM26 27V80Q26 94 42 94H74Q89 94 89 80V27Z" fill="url(#steel)" fill-rule="evenodd" stroke="#746f67" stroke-width="2"/><path d="M23 28H89L80 47H28Z" fill="#5e5d56"/><text x="57" y="150" font-family="Arial" font-weight="900" font-size="18" fill="#565956" text-anchor="middle">OPEN<tspan x="57" dy="23">MORE</tspan><tspan x="57" dy="23">FUN</tspan></text></g></svg>
